<svg width="239" height="152" viewBox="0 0 239 152" fill="none" xmlns="http://www.w3.org/2000/svg">
<path d="M120 68.81H116.55V83H113.82V68.81H111.69V66.56H113.82V65.39C113.82 63.55 114.29 62.21 115.23 61.37C116.19 60.51 117.72 60.08 119.82 60.08V62.36C118.62 62.36 117.77 62.6 117.27 63.08C116.79 63.54 116.55 64.31 116.55 65.39V66.56H120V68.81ZM124.593 63.89C124.073 63.89 123.633 63.71 123.273 63.35C122.913 62.99 122.733 62.55 122.733 62.03C122.733 61.51 122.913 61.07 123.273 60.71C123.633 60.35 124.073 60.17 124.593 60.17C125.093 60.17 125.513 60.35 125.853 60.71C126.213 61.07 126.393 61.51 126.393 62.03C126.393 62.55 126.213 62.99 125.853 63.35C125.513 63.71 125.093 63.89 124.593 63.89ZM125.913 66.56V83H123.183V66.56H125.913ZM133.896 68.81V78.5C133.896 79.3 134.066 79.87 134.406 80.21C134.746 80.53 135.336 80.69 136.176 80.69H138.186V83H135.726C134.206 83 133.066 82.65 132.306 81.95C131.546 81.25 131.166 80.1 131.166 78.5V68.81H129.036V66.56H131.166V62.42H133.896V66.56H138.186V68.81H133.896ZM140.984 66.77C141.124 64.93 141.834 63.49 143.114 62.45C144.394 61.41 146.054 60.89 148.094 60.89C149.454 60.89 150.624 61.14 151.604 61.64C152.604 62.12 153.354 62.78 153.854 63.62C154.374 64.46 154.634 65.41 154.634 66.47C154.634 67.71 154.274 68.78 153.554 69.68C152.854 70.58 151.934 71.16 150.794 71.42V71.57C152.094 71.89 153.124 72.52 153.884 73.46C154.644 74.4 155.024 75.63 155.024 77.15C155.024 78.29 154.764 79.32 154.244 80.24C153.724 81.14 152.944 81.85 151.904 82.37C150.864 82.89 149.614 83.15 148.154 83.15C146.034 83.15 144.294 82.6 142.934 81.5C141.574 80.38 140.814 78.8 140.654 76.76H143.294C143.434 77.96 143.924 78.94 144.764 79.7C145.604 80.46 146.724 80.84 148.124 80.84C149.524 80.84 150.584 80.48 151.304 79.76C152.044 79.02 152.414 78.07 152.414 76.91C152.414 75.41 151.914 74.33 150.914 73.67C149.914 73.01 148.404 72.68 146.384 72.68H145.694V70.4H146.414C148.254 70.38 149.644 70.08 150.584 69.5C151.524 68.9 151.994 67.98 151.994 66.74C151.994 65.68 151.644 64.83 150.944 64.19C150.264 63.55 149.284 63.23 148.004 63.23C146.764 63.23 145.764 63.55 145.004 64.19C144.244 64.83 143.794 65.69 143.654 66.77H140.984ZM158.71 71.93C158.71 68.49 159.27 65.81 160.39 63.89C161.51 61.95 163.47 60.98 166.27 60.98C169.05 60.98 171 61.95 172.12 63.89C173.24 65.81 173.8 68.49 173.8 71.93C173.8 75.43 173.24 78.15 172.12 80.09C171 82.03 169.05 83 166.27 83C163.47 83 161.51 82.03 160.39 80.09C159.27 78.15 158.71 75.43 158.71 71.93ZM171.1 71.93C171.1 70.19 170.98 68.72 170.74 67.52C170.52 66.3 170.05 65.32 169.33 64.58C168.63 63.84 167.61 63.47 166.27 63.47C164.91 63.47 163.87 63.84 163.15 64.58C162.45 65.32 161.98 66.3 161.74 67.52C161.52 68.72 161.41 70.19 161.41 71.93C161.41 73.73 161.52 75.24 161.74 76.46C161.98 77.68 162.45 78.66 163.15 79.4C163.87 80.14 164.91 80.51 166.27 80.51C167.61 80.51 168.63 80.14 169.33 79.4C170.05 78.66 170.52 77.68 170.74 76.46C170.98 75.24 171.1 73.73 171.1 71.93Z" fill="black"/>
<path d="M47.8875 51.5H42.8625C41.4702 51.5 40.35 52.4195 40.35 53.5625V62.5H37.8375C37.3769 62.5 37 62.8094 37 63.1875V67.3125C37 67.6906 37.3769 68 37.8375 68H40.35V76.9375C40.35 78.0805 41.4702 79 42.8625 79H47.8875C49.2798 79 50.4 78.0805 50.4 76.9375V53.5625C50.4 52.4195 49.2798 51.5 47.8875 51.5ZM103.162 62.5H100.65V53.5625C100.65 52.4195 99.5298 51.5 98.1375 51.5H93.1125C91.7202 51.5 90.6 52.4195 90.6 53.5625V76.9375C90.6 78.0805 91.7202 79 93.1125 79H98.1375C99.5298 79 100.65 78.0805 100.65 76.9375V68H103.162C103.623 68 104 67.6906 104 67.3125V63.1875C104 62.8094 103.623 62.5 103.162 62.5ZM84.7375 46H79.7125C78.3202 46 77.2 46.9195 77.2 48.0625V62.5H63.8V48.0625C63.8 46.9195 62.6798 46 61.2875 46H56.2625C54.8702 46 53.75 46.9195 53.75 48.0625V82.4375C53.75 83.5805 54.8702 84.5 56.2625 84.5H61.2875C62.6798 84.5 63.8 83.5805 63.8 82.4375V68H77.2V82.4375C77.2 83.5805 78.3202 84.5 79.7125 84.5H84.7375C86.1298 84.5 87.25 83.5805 87.25 82.4375V48.0625C87.25 46.9195 86.1298 46 84.7375 46Z" fill="#EC780E"/>
</svg>
